<svg xmlns="http://www.w3.org/2000/svg" width="1670" height="1020" viewBox="0 0 1670 1020" role="img" aria-label="JLOS route diagram for Imported Route"><title>JLOS route diagram for Imported Route</title><desc>Route length 516 meters, vertical change 20 meters, overall LOS B.</desc><style>
    text { font-family: Inter, ui-sans-serif, system-ui, -apple-system, BlinkMacSystemFont, 'Segoe UI', sans-serif; dominant-baseline: middle; letter-spacing: 0; }
    .diagram-description { fill: #6B7280; }
  </style><defs><pattern id="shelter-hatch" patternUnits="userSpaceOnUse" width="8" height="8"><line x1="0" y1="8" x2="8" y2="0" stroke="#111827" stroke-width="1.4" opacity="0.34"/></pattern></defs><rect x="0" y="0" width="1670" height="1020" fill="#FFFFFF"/><g transform="translate(10 10)"><line x1="0" y1="0" x2="0" y2="1020" stroke="#E5E7EB" stroke-width="1"/><line x1="75" y1="0" x2="75" y2="1020" stroke="#E5E7EB" stroke-width="1"/><line x1="150" y1="0" x2="150" y2="1020" stroke="#E5E7EB" stroke-width="1"/><line x1="225" y1="0" x2="225" y2="1020" stroke="#E5E7EB" stroke-width="1"/><line x1="300" y1="0" x2="300" y2="1020" stroke="#E5E7EB" stroke-width="1"/><line x1="375" y1="0" x2="375" y2="1020" stroke="#E5E7EB" stroke-width="1"/><line x1="450" y1="0" x2="450" y2="1020" stroke="#E5E7EB" stroke-width="1"/><line x1="525" y1="0" x2="525" y2="1020" stroke="#E5E7EB" stroke-width="1"/><line x1="600" y1="0" x2="600" y2="1020" stroke="#E5E7EB" stroke-width="1"/><line x1="675" y1="0" x2="675" y2="1020" stroke="#E5E7EB" stroke-width="1"/><line x1="750" y1="0" x2="750" y2="1020" stroke="#E5E7EB" stroke-width="1"/><line x1="825" y1="0" x2="825" y2="1020" stroke="#E5E7EB" stroke-width="1"/><line x1="900" y1="0" x2="900" y2="1020" stroke="#E5E7EB" stroke-width="1"/><line x1="975" y1="0" x2="975" y2="1020" stroke="#E5E7EB" stroke-width="1"/><line x1="1050" y1="0" x2="1050" y2="1020" stroke="#E5E7EB" stroke-width="1"/><line x1="1125" y1="0" x2="1125" y2="1020" stroke="#E5E7EB" stroke-width="1"/><line x1="1200" y1="0" x2="1200" y2="1020" stroke="#E5E7EB" stroke-width="1"/><line x1="1275" y1="0" x2="1275" y2="1020" stroke="#E5E7EB" stroke-width="1"/><line x1="1350" y1="0" x2="1350" y2="1020" stroke="#E5E7EB" stroke-width="1"/><line x1="1425" y1="0" x2="1425" y2="1020" stroke="#E5E7EB" stroke-width="1"/><line x1="1500" y1="0" x2="1500" y2="1020" stroke="#E5E7EB" stroke-width="1"/><line x1="1575" y1="0" x2="1575" y2="1020" stroke="#E5E7EB" stroke-width="1"/><line x1="1650" y1="0" x2="1650" y2="1020" stroke="#E5E7EB" stroke-width="1"/><line x1="0" y1="0" x2="1670" y2="0" stroke="#E5E7EB" stroke-width="1"/><line x1="0" y1="50" x2="1670" y2="50" stroke="#E5E7EB" stroke-width="1"/><line x1="0" y1="100" x2="1670" y2="100" stroke="#E5E7EB" stroke-width="1"/><line x1="0" y1="150" x2="1670" y2="150" stroke="#E5E7EB" stroke-width="1"/><line x1="0" y1="200" x2="1670" y2="200" stroke="#E5E7EB" stroke-width="1"/><line x1="0" y1="250" x2="1670" y2="250" stroke="#E5E7EB" stroke-width="1"/><line x1="0" y1="300" x2="1670" y2="300" stroke="#E5E7EB" stroke-width="1"/><line x1="0" y1="350" x2="1670" y2="350" stroke="#E5E7EB" stroke-width="1"/><line x1="0" y1="400" x2="1670" y2="400" stroke="#E5E7EB" stroke-width="1"/><line x1="0" y1="450" x2="1670" y2="450" stroke="#E5E7EB" stroke-width="1"/><line x1="0" y1="500" x2="1670" y2="500" stroke="#E5E7EB" stroke-width="1"/><line x1="0" y1="550" x2="1670" y2="550" stroke="#E5E7EB" stroke-width="1"/><line x1="0" y1="600" x2="1670" y2="600" stroke="#E5E7EB" stroke-width="1"/><line x1="0" y1="650" x2="1670" y2="650" stroke="#E5E7EB" stroke-width="1"/><line x1="0" y1="700" x2="1670" y2="700" stroke="#E5E7EB" stroke-width="1"/><line x1="0" y1="750" x2="1670" y2="750" stroke="#E5E7EB" stroke-width="1"/><line x1="0" y1="800" x2="1670" y2="800" stroke="#E5E7EB" stroke-width="1"/><line x1="0" y1="850" x2="1670" y2="850" stroke="#E5E7EB" stroke-width="1"/><line x1="0" y1="900" x2="1670" y2="900" stroke="#E5E7EB" stroke-width="1"/><line x1="0" y1="950" x2="1670" y2="950" stroke="#E5E7EB" stroke-width="1"/><line x1="0" y1="1000" x2="1670" y2="1000" stroke="#E5E7EB" stroke-width="1"/><rect x="0" y="0" width="1650" height="1000" fill="none" stroke="#D1D5DB" stroke-width="1.4" rx="10"/><rect x="1500" y="900" width="75" height="50" fill="none" stroke="#6B7280" stroke-width="1.5" rx="4"/><text x="1537.5" y="962" font-size="11" fill="#6B7280" text-anchor="middle">30m</text><text x="1587" y="925" font-size="11" fill="#6B7280" text-anchor="start">4m</text><g><rect x="90" y="904" width="740" height="64" fill="rgba(255,255,255,0.92)" stroke="#D1D5DB" stroke-width="1" rx="10"/><rect x="122" y="926" width="40" height="22" fill="#16A34A" rx="5"/><text x="142" y="937" font-size="12" fill="#fff" font-weight="800" text-anchor="middle">A</text><rect x="168" y="926" width="40" height="22" fill="#65A30D" rx="5"/><text x="188" y="937" font-size="12" fill="#fff" font-weight="800" text-anchor="middle">B</text><rect x="214" y="926" width="40" height="22" fill="#EAB308" rx="5"/><text x="234" y="937" font-size="12" fill="#fff" font-weight="800" text-anchor="middle">C</text><rect x="260" y="926" width="40" height="22" fill="#F97316" rx="5"/><text x="280" y="937" font-size="12" fill="#fff" font-weight="800" text-anchor="middle">D</text><rect x="306" y="926" width="40" height="22" fill="#DC2626" rx="5"/><text x="326" y="937" font-size="12" fill="#fff" font-weight="800" text-anchor="middle">E</text><rect x="352" y="926" width="40" height="22" fill="#7F1D1D" rx="5"/><text x="372" y="937" font-size="12" fill="#fff" font-weight="800" text-anchor="middle">F</text><text x="122" y="960" font-size="10" fill="#6B7280" text-anchor="start">Level of service</text><rect x="430" y="925" width="82" height="10" fill="url(#shelter-hatch)" stroke="none"/><text x="526" y="930" font-size="12" fill="#111827" text-anchor="start">Sheltered</text><rect x="430" y="944" width="82" height="12" fill="rgba(186, 230, 253, 0.72)" stroke="none" rx="4"/><text x="526" y="950" font-size="12" fill="#111827" text-anchor="start">Air-conditioned</text><g transform="translate(668 930)"><g data-marker="bottleneck" fill="none" stroke="#111827" stroke-width="2" stroke-linecap="round" stroke-linejoin="round" transform="scale(0.8333333333333334) translate(-12 -12)"><path d="M8 4v6l3 2-3 2v6M16 4v6l-3 2 3 2v6"/></g></g><text x="690" y="930" font-size="12" fill="#111827" text-anchor="start">Bottleneck</text><g transform="translate(668 952)"><g data-marker="turnstiles" fill="none" stroke="#111827" stroke-width="2" stroke-linecap="round" stroke-linejoin="round" transform="scale(0.8333333333333334) translate(-12 -12)"><path d="M7 4v16M17 4v16M7 12h10M12 7l5 5-5 5"/></g></g><text x="690" y="952" font-size="12" fill="#111827" text-anchor="start">Turnstiles</text></g><g transform="translate(100 550)"><line x1="-70" y1="0" x2="-50" y2="0" stroke="#111827" stroke-width="1.4"/><text x="-82" y="0" font-size="11" text-anchor="middle" fill="#111827">-1F</text><line x1="-70" y1="-80" x2="-50" y2="-80" stroke="#111827" stroke-width="1.4"/><text x="-82" y="-80" font-size="11" text-anchor="middle" fill="#111827">G</text><line x1="-70" y1="-140" x2="-50" y2="-140" stroke="#111827" stroke-width="1.4"/><text x="-82" y="-140" font-size="11" text-anchor="middle" fill="#111827">1F</text><line x1="-70" y1="-200" x2="-50" y2="-200" stroke="#111827" stroke-width="1.4"/><text x="-82" y="-200" font-size="11" text-anchor="middle" fill="#111827">2F</text><g transform="translate(0 0)"><polygon points="0,0 0,-30 115,-30 115,0" fill="rgba(22, 163, 74, 0.24)" stroke="none"/><polygon points="0,-30 0,-37 115,-37 115,-30" fill="url(#shelter-hatch)" stroke="none" opacity="0.9"/><line x1="0" y1="0" x2="115" y2="0" stroke="#111827" stroke-width="4" stroke-linecap="round"/><circle cx="0" cy="0" r="5" fill="#111827"/><g transform="translate(-25 -15)"><g data-marker="bus" fill="none" stroke="#111827" stroke-width="2" stroke-linecap="round" stroke-linejoin="round" transform="scale(1.25) translate(-12 -12)"><rect x="4" y="5" width="16" height="12" rx="3"/><path d="M7 17v2M17 17v2M7 9h10M8 14h.01M16 14h.01"/></g></g><text x="-25" y="17" font-size="11" text-anchor="middle" fill="#111827" font-weight="700">BUS</text></g><g transform="translate(115 0)"><polygon points="0,0 0,-30 85,-110 85,-80" fill="rgba(234, 179, 8, 0.24)" stroke="none"/><polygon points="0,-30 0,-37 85,-117 85,-110" fill="url(#shelter-hatch)" stroke="none" opacity="0.9"/><line x1="0" y1="0" x2="85" y2="-80" stroke="#111827" stroke-width="4" stroke-linecap="round"/><circle cx="0" cy="0" r="5" fill="#111827"/><g transform="translate(42.5 -55)"><g data-marker="escalator_up" fill="none" stroke="#111827" stroke-width="2" stroke-linecap="round" stroke-linejoin="round" transform="scale(1) translate(-12 -12)"><path d="M5 18h4l5-8h5M15 6h4v4M15 10l4-4M6 8h.01"/></g></g></g><g transform="translate(200 -80)"><polygon points="0,0 0,-30 65,-30 65,0" fill="rgba(101, 163, 13, 0.24)" stroke="none"/><polygon points="0,-30 0,-37 65,-37 65,-30" fill="url(#shelter-hatch)" stroke="none" opacity="0.9"/><line x1="0" y1="0" x2="65" y2="0" stroke="#111827" stroke-width="4" stroke-linecap="round"/><circle cx="0" cy="0" r="5" fill="#111827"/></g><g transform="translate(265 -80)"><polygon points="0,0 0,-30 42.5,-90 42.5,-60" fill="rgba(234, 179, 8, 0.24)" stroke="none"/><polygon points="0,-30 0,-37 42.5,-97 42.5,-90" fill="url(#shelter-hatch)" stroke="none" opacity="0.9"/><line x1="0" y1="0" x2="42.5" y2="-60" stroke="#111827" stroke-width="4" stroke-linecap="round"/><circle cx="0" cy="0" r="5" fill="#111827"/><g transform="translate(21.25 -45)"><g data-marker="escalator_up" fill="none" stroke="#111827" stroke-width="2" stroke-linecap="round" stroke-linejoin="round" transform="scale(1) translate(-12 -12)"><path d="M5 18h4l5-8h5M15 6h4v4M15 10l4-4M6 8h.01"/></g></g></g><g transform="translate(307.5 -140)"><polygon points="0,0 0,-30 312.5,-30 312.5,0" fill="rgba(101, 163, 13, 0.24)" stroke="none"/><line x1="0" y1="0" x2="312.5" y2="0" stroke="#111827" stroke-width="4" stroke-linecap="round"/><circle cx="0" cy="0" r="5" fill="#111827"/></g><g transform="translate(620 -140)"><polygon points="0,0 0,-30 32.5,-30 32.5,0" fill="rgba(22, 163, 74, 0.24)" stroke="none"/><polygon points="0,-30 0,-45 32.5,-45 32.5,-30" fill="rgba(186, 230, 253, 0.72)" stroke="none"/><polygon points="0,-30 0,-37 32.5,-37 32.5,-30" fill="url(#shelter-hatch)" stroke="none" opacity="0.9"/><line x1="0" y1="0" x2="32.5" y2="0" stroke="#111827" stroke-width="4" stroke-linecap="round"/><circle cx="0" cy="0" r="5" fill="#111827"/><g transform="translate(16.25 -15)"><g data-marker="retail" fill="none" stroke="#111827" stroke-width="2" stroke-linecap="round" stroke-linejoin="round" transform="scale(1) translate(-12 -12)"><path d="M6 8h12l-1 12H7L6 8ZM9 8a3 3 0 0 1 6 0"/></g></g><line x1="16.25" y1="-3" x2="16.25" y2="30" stroke="#111827" stroke-width="1.3"/><text x="16.25" y="42" font-size="10.5" text-anchor="middle" fill="#111827" font-weight="700">RETAIL</text></g><g transform="translate(652.5 -140)"><polygon points="0,0 0,-30 42.5,-90 42.5,-60" fill="rgba(101, 163, 13, 0.24)" stroke="none"/><polygon points="0,-30 0,-45 42.5,-105 42.5,-90" fill="rgba(186, 230, 253, 0.72)" stroke="none"/><polygon points="0,-30 0,-37 42.5,-97 42.5,-90" fill="url(#shelter-hatch)" stroke="none" opacity="0.9"/><line x1="0" y1="0" x2="42.5" y2="-60" stroke="#111827" stroke-width="4" stroke-linecap="round"/><circle cx="0" cy="0" r="5" fill="#111827"/><g transform="translate(21.25 -45)"><g data-marker="escalator_up" fill="none" stroke="#111827" stroke-width="2" stroke-linecap="round" stroke-linejoin="round" transform="scale(1) translate(-12 -12)"><path d="M5 18h4l5-8h5M15 6h4v4M15 10l4-4M6 8h.01"/></g></g></g><g transform="translate(695 -200)"><polygon points="0,0 0,-30 57.5,-30 57.5,0" fill="rgba(22, 163, 74, 0.24)" stroke="none"/><polygon points="0,-30 0,-45 57.5,-45 57.5,-30" fill="rgba(186, 230, 253, 0.72)" stroke="none"/><polygon points="0,-30 0,-37 57.5,-37 57.5,-30" fill="url(#shelter-hatch)" stroke="none" opacity="0.9"/><line x1="0" y1="0" x2="57.5" y2="0" stroke="#111827" stroke-width="4" stroke-linecap="round"/><circle cx="0" cy="0" r="5" fill="#111827"/></g><g transform="translate(752.5 -200)"><polygon points="0,0 0,-30 57.5,-30 57.5,0" fill="rgba(22, 163, 74, 0.24)" stroke="none"/><polygon points="0,-30 0,-45 57.5,-45 57.5,-30" fill="rgba(186, 230, 253, 0.72)" stroke="none"/><polygon points="0,-30 0,-37 57.5,-37 57.5,-30" fill="url(#shelter-hatch)" stroke="none" opacity="0.9"/><line x1="0" y1="0" x2="57.5" y2="0" stroke="#111827" stroke-width="4" stroke-linecap="round"/><circle cx="0" cy="0" r="5" fill="#111827"/><g transform="translate(0 -15)"><g data-marker="ticketing" fill="none" stroke="#111827" stroke-width="2" stroke-linecap="round" stroke-linejoin="round" transform="scale(1) translate(-12 -12)"><path d="M5 8a2 2 0 0 0 0 4v4a2 2 0 0 0 2 2h10a2 2 0 0 0 2-2v-4a2 2 0 0 0 0-4V6a2 2 0 0 0-2-2H7a2 2 0 0 0-2 2v2Z"/><path d="M9 9h6M9 13h6"/></g></g><line x1="0" y1="-3" x2="0" y2="30" stroke="#111827" stroke-width="1.3"/><text x="0" y="42" font-size="10.5" text-anchor="middle" fill="#111827" font-weight="700">TICKETING</text></g><g transform="translate(810 -200)"><polygon points="0,0 0,-30 42.5,30 42.5,60" fill="rgba(101, 163, 13, 0.24)" stroke="none"/><polygon points="0,-30 0,-45 42.5,15 42.5,30" fill="rgba(186, 230, 253, 0.72)" stroke="none"/><polygon points="0,-30 0,-37 42.5,23 42.5,30" fill="url(#shelter-hatch)" stroke="none" opacity="0.9"/><line x1="0" y1="0" x2="42.5" y2="60" stroke="#111827" stroke-width="4" stroke-linecap="round"/><circle cx="0" cy="0" r="5" fill="#111827"/><g transform="translate(21.25 15)"><g data-marker="escalator_down" fill="none" stroke="#111827" stroke-width="2" stroke-linecap="round" stroke-linejoin="round" transform="scale(1) translate(-12 -12)"><path d="M5 10h4l5 8h5M15 18h4v-4M15 14l4 4M6 6h.01"/></g></g></g><g transform="translate(852.5 -140)"><polygon points="0,0 0,-30 27.5,-30 27.5,0" fill="rgba(22, 163, 74, 0.24)" stroke="none"/><polygon points="0,-30 0,-45 27.5,-45 27.5,-30" fill="rgba(186, 230, 253, 0.72)" stroke="none"/><polygon points="0,-30 0,-37 27.5,-37 27.5,-30" fill="url(#shelter-hatch)" stroke="none" opacity="0.9"/><line x1="0" y1="0" x2="27.5" y2="0" stroke="#111827" stroke-width="4" stroke-linecap="round"/><circle cx="0" cy="0" r="5" fill="#111827"/><g transform="translate(13.75 -15)"><g data-marker="retail" fill="none" stroke="#111827" stroke-width="2" stroke-linecap="round" stroke-linejoin="round" transform="scale(1) translate(-12 -12)"><path d="M6 8h12l-1 12H7L6 8ZM9 8a3 3 0 0 1 6 0"/></g></g><line x1="13.75" y1="-3" x2="13.75" y2="30" stroke="#111827" stroke-width="1.3"/><text x="13.75" y="42" font-size="10.5" text-anchor="middle" fill="#111827" font-weight="700">RETAIL</text></g><g transform="translate(880 -140)"><polygon points="0,0 0,-30 255,-30 255,0" fill="rgba(101, 163, 13, 0.24)" stroke="none"/><line x1="0" y1="0" x2="255" y2="0" stroke="#111827" stroke-width="4" stroke-linecap="round"/><circle cx="0" cy="0" r="5" fill="#111827"/></g><g transform="translate(1135 -140)"><polygon points="0,0 0,-30 87.5,-30 87.5,0" fill="rgba(22, 163, 74, 0.24)" stroke="none"/><polygon points="0,-30 0,-45 87.5,-45 87.5,-30" fill="rgba(186, 230, 253, 0.72)" stroke="none"/><polygon points="0,-30 0,-37 87.5,-37 87.5,-30" fill="url(#shelter-hatch)" stroke="none" opacity="0.9"/><line x1="0" y1="0" x2="87.5" y2="0" stroke="#111827" stroke-width="4" stroke-linecap="round"/><circle cx="0" cy="0" r="5" fill="#111827"/><g transform="translate(43.75 -15)"><g data-marker="retail" fill="none" stroke="#111827" stroke-width="2" stroke-linecap="round" stroke-linejoin="round" transform="scale(1) translate(-12 -12)"><path d="M6 8h12l-1 12H7L6 8ZM9 8a3 3 0 0 1 6 0"/></g></g><line x1="43.75" y1="-3" x2="43.75" y2="30" stroke="#111827" stroke-width="1.3"/><text x="43.75" y="42" font-size="10.5" text-anchor="middle" fill="#111827" font-weight="700">RETAIL</text></g><g transform="translate(1222.5 -140)"><polygon points="0,0 0,-30 42.5,-90 42.5,-60" fill="rgba(101, 163, 13, 0.24)" stroke="none"/><polygon points="0,-30 0,-45 42.5,-105 42.5,-90" fill="rgba(186, 230, 253, 0.72)" stroke="none"/><polygon points="0,-30 0,-37 42.5,-97 42.5,-90" fill="url(#shelter-hatch)" stroke="none" opacity="0.9"/><line x1="0" y1="0" x2="42.5" y2="-60" stroke="#111827" stroke-width="4" stroke-linecap="round"/><circle cx="0" cy="0" r="5" fill="#111827"/><g transform="translate(21.25 -45)"><g data-marker="escalator_up" fill="none" stroke="#111827" stroke-width="2" stroke-linecap="round" stroke-linejoin="round" transform="scale(1) translate(-12 -12)"><path d="M5 18h4l5-8h5M15 6h4v4M15 10l4-4M6 8h.01"/></g></g></g><g transform="translate(1265 -200)"><polygon points="0,0 0,-30 25,-30 25,0" fill="rgba(22, 163, 74, 0.24)" stroke="none"/><polygon points="0,-30 0,-45 25,-45 25,-30" fill="rgba(186, 230, 253, 0.72)" stroke="none"/><polygon points="0,-30 0,-37 25,-37 25,-30" fill="url(#shelter-hatch)" stroke="none" opacity="0.9"/><line x1="0" y1="0" x2="25" y2="0" stroke="#111827" stroke-width="4" stroke-linecap="round"/><circle cx="0" cy="0" r="5" fill="#111827"/></g><circle cx="1290" cy="-200" r="5" fill="#111827"/></g><rect x="1418" y="328" width="61.76" height="44" fill="rgba(255,255,255,0.88)" stroke="#D1D5DB" stroke-width="1" rx="8"/><text x="1428" y="345" font-size="12" fill="#111827" text-anchor="start" font-weight="750">H 516m</text><text x="1428" y="361" font-size="12" fill="#111827" text-anchor="start" font-weight="750">V 20m</text><rect x="1591" y="17" width="42" height="42" fill="#65A30D" stroke="#111827" stroke-width="1.5" rx="8"/><text x="1612" y="39" font-size="28" fill="#fff" font-weight="800" text-anchor="middle">B</text></g></svg>
